<svg xmlns="http://www.w3.org/2000/svg" width="384pt" height="384pt" viewBox="0 0 384 384" version="1.1" class="iconadda">
<g id="surface136529">
<g id="Code_free_icon_MN4VTdY-0"><path style=" stroke:none;fill-rule:nonzero;fill:rgb(0%,0%,0%);fill-opacity:1;" d="M 348.75 12.75 L 35.25 12.75 C 15.8125 12.75 0 28.5625 0 48 L 0 276 C 0 295.4375 15.8125 311.25 35.25 311.25 L 156.75 311.25 L 156.75 348.75 L 144 348.75 C 137.785156 348.75 132.75 353.785156 132.75 360 C 132.75 366.214844 137.785156 371.25 144 371.25 L 240 371.25 C 246.214844 371.25 251.25 366.214844 251.25 360 C 251.25 353.785156 246.214844 348.75 240 348.75 L 227.25 348.75 L 227.25 311.25 L 348.75 311.25 C 368.1875 311.25 384 295.4375 384 276 L 384 48 C 384 28.5625 368.1875 12.75 348.75 12.75 Z M 35.25 35.25 L 348.75 35.25 C 355.78125 35.25 361.5 40.96875 361.5 48 L 361.5 240.75 L 22.5 240.75 L 22.5 48 C 22.5 40.96875 28.21875 35.25 35.25 35.25 Z M 204.75 348.75 L 179.25 348.75 L 179.25 311.25 L 204.75 311.25 Z M 348.75 288.75 L 35.25 288.75 C 28.21875 288.75 22.5 283.03125 22.5 276 L 22.5 263.25 L 361.5 263.25 L 361.5 276 C 361.5 283.03125 355.78125 288.75 348.75 288.75 Z M 348.75 288.75 " />
</g><g id="Code_free_icon_MN4VTdY-1"><path style=" stroke:none;fill-rule:nonzero;fill:rgb(0%,0%,0%);fill-opacity:1;" d="M 177.558594 202.980469 C 183.632812 204.328125 189.636719 200.496094 190.980469 194.4375 L 214.980469 86.4375 C 216.328125 80.371094 212.503906 74.363281 206.4375 73.015625 C 200.371094 71.671875 194.363281 75.492188 193.015625 81.558594 L 169.015625 189.558594 C 167.667969 195.625 171.492188 201.632812 177.554688 202.980469 Z M 136.046875 175.953125 C 140.441406 180.347656 147.5625 180.347656 151.957031 175.953125 C 156.351562 171.558594 156.351562 164.4375 151.957031 160.042969 L 129.910156 138 L 151.953125 115.953125 C 156.347656 111.558594 156.347656 104.4375 151.953125 100.042969 C 147.558594 95.648438 140.4375 95.648438 136.042969 100.042969 L 106.042969 130.042969 C 101.648438 134.4375 101.648438 141.558594 106.042969 145.953125 Z M 232.046875 175.953125 C 236.441406 180.347656 243.5625 180.347656 247.957031 175.953125 L 277.957031 145.953125 C 282.351562 141.558594 282.351562 134.4375 277.957031 130.042969 L 247.957031 100.042969 C 243.5625 95.648438 236.441406 95.648438 232.046875 100.042969 C 227.652344 104.4375 227.652344 111.558594 232.046875 115.953125 L 254.089844 138 L 232.042969 160.046875 C 227.648438 164.441406 227.648438 171.5625 232.042969 175.957031 Z M 232.046875 175.953125 " />
</g></g>
</svg>