<svg xmlns="http://www.w3.org/2000/svg" width="384pt" height="384pt" viewBox="0 0 384 384" version="1.1" class="iconadda">
<g id="surface33336">
<g id="Film_Editing_free_icon_4xFaMJB-0"><path style=" stroke:none;fill-rule:nonzero;fill:rgb(0%,0%,0%);fill-opacity:1;" d="M 278.710938 359.226562 C 292.375 359.226562 303.484375 348.117188 303.484375 334.453125 C 303.484375 320.789062 292.375 309.679688 278.710938 309.679688 C 265.046875 309.679688 253.9375 320.789062 253.9375 334.453125 C 253.9375 348.117188 265.046875 359.226562 278.710938 359.226562 Z M 278.710938 322.066406 C 285.542969 322.066406 291.097656 327.621094 291.097656 334.453125 C 291.097656 341.285156 285.542969 346.839844 278.710938 346.839844 C 271.878906 346.839844 266.324219 341.285156 266.324219 334.453125 C 266.324219 327.621094 271.878906 322.066406 278.710938 322.066406 Z M 148.644531 309.675781 C 134.980469 309.675781 123.871094 320.785156 123.871094 334.449219 C 123.871094 348.113281 134.980469 359.222656 148.644531 359.222656 C 162.308594 359.222656 173.417969 348.113281 173.417969 334.449219 C 173.417969 320.785156 162.308594 309.675781 148.644531 309.675781 Z M 148.644531 346.835938 C 141.8125 346.835938 136.257812 341.28125 136.257812 334.449219 C 136.257812 327.617188 141.8125 322.0625 148.644531 322.0625 C 155.476562 322.0625 161.03125 327.617188 161.03125 334.449219 C 161.03125 341.28125 155.476562 346.835938 148.644531 346.835938 Z M 148.644531 346.835938 " />
</g><g id="Film_Editing_free_icon_4xFaMJB-1"><path style=" stroke:none;fill-rule:nonzero;fill:rgb(0%,0%,0%);fill-opacity:1;" d="M 384 210.582031 L 384 24.773438 L 271.8125 24.773438 L 272.394531 20 C 272.476562 19.296875 272.519531 18.582031 272.519531 17.878906 C 272.515625 8.019531 264.496094 0 254.640625 0 L 242.464844 0 L 238.46875 24.773438 L 188.882812 24.773438 L 184.882812 0 L 172.703125 0 C 162.859375 0 154.839844 8.019531 154.839844 17.875 C 154.839844 18.578125 154.882812 19.292969 154.96875 20.023438 L 155.535156 24.773438 L 0 24.773438 L 0 210.578125 L 178.066406 210.578125 L 179.546875 222.78125 L 171.761719 265.605469 C 169.722656 276.789062 160.003906 284.902344 148.644531 284.902344 C 121.324219 284.902344 99.097656 307.128906 99.097656 334.449219 C 99.097656 361.769531 121.324219 383.996094 148.644531 383.996094 L 149.625 383.996094 C 173.578125 383.996094 194.078125 366.882812 198.355469 343.382812 L 213.675781 264.308594 L 228.988281 343.316406 C 233.273438 366.886719 253.773438 384 277.730469 384 L 278.710938 384 C 306.03125 384 328.257812 361.773438 328.257812 334.453125 C 328.257812 307.132812 306.03125 284.90625 278.710938 284.90625 C 267.351562 284.90625 257.636719 276.792969 255.597656 265.621094 L 247.8125 222.785156 L 249.289062 210.582031 Z M 216.773438 241.550781 C 206.53125 241.550781 198.191406 233.210938 198.191406 222.96875 C 198.191406 212.726562 206.53125 204.386719 216.773438 204.386719 C 226.949219 204.386719 235.21875 212.613281 235.335938 222.761719 L 235.292969 223.152344 L 235.324219 223.320312 C 235.125 233.402344 226.898438 241.546875 216.773438 241.546875 Z M 173.417969 37.160156 L 173.417969 49.546875 L 161.03125 49.546875 L 161.03125 37.160156 Z M 214.492188 173.417969 L 142.453125 173.417969 L 142.453125 61.933594 L 232.484375 61.933594 Z M 210.582031 49.546875 L 210.582031 37.160156 L 222.96875 37.160156 L 222.96875 49.546875 Z M 198.195312 49.546875 L 185.808594 49.546875 L 185.804688 37.160156 L 198.191406 37.160156 Z M 148.648438 49.546875 L 136.261719 49.546875 L 136.257812 37.160156 L 148.644531 37.160156 Z M 123.875 49.546875 L 111.488281 49.546875 L 111.484375 37.160156 L 123.871094 37.160156 Z M 99.101562 49.546875 L 86.714844 49.546875 L 86.710938 37.160156 L 99.097656 37.160156 Z M 74.328125 49.546875 L 61.933594 49.546875 L 61.933594 37.160156 L 74.320312 37.160156 Z M 49.554688 49.546875 L 37.160156 49.546875 L 37.160156 37.160156 L 49.546875 37.160156 Z M 61.941406 61.933594 L 61.941406 86.707031 L 74.328125 86.707031 L 74.324219 61.933594 L 130.066406 61.933594 L 130.066406 173.417969 L 74.324219 173.417969 L 74.324219 99.09375 L 61.933594 99.097656 L 61.933594 173.421875 L 12.386719 173.417969 L 12.386719 61.933594 Z M 49.546875 185.804688 L 49.546875 198.191406 L 37.160156 198.195312 L 37.160156 185.808594 Z M 61.933594 185.804688 L 74.320312 185.804688 L 74.320312 198.191406 L 61.933594 198.195312 Z M 86.707031 185.804688 L 99.09375 185.804688 L 99.09375 198.191406 L 86.707031 198.191406 Z M 111.480469 185.804688 L 123.867188 185.804688 L 123.867188 198.191406 L 111.480469 198.191406 Z M 136.253906 185.804688 L 148.640625 185.804688 L 148.640625 198.191406 L 136.253906 198.191406 Z M 161.027344 185.804688 L 173.414062 185.804688 L 173.414062 198.191406 L 161.027344 198.191406 Z M 185.800781 185.804688 L 212.496094 185.804688 L 211.410156 192.542969 C 206.492188 193.410156 202.023438 195.457031 198.195312 198.351562 L 198.199219 198.195312 L 185.8125 198.195312 L 185.8125 185.808594 Z M 267.308594 61.933594 L 309.675781 61.933594 L 309.675781 142.449219 L 322.0625 142.449219 L 322.066406 61.933594 L 371.613281 61.933594 L 371.613281 173.417969 L 322.066406 173.417969 L 322.066406 154.835938 L 309.679688 154.835938 L 309.679688 173.417969 L 253.796875 173.417969 Z M 334.453125 49.546875 L 334.453125 37.160156 L 346.839844 37.160156 L 346.839844 49.546875 Z M 322.066406 49.546875 L 309.679688 49.546875 L 309.675781 37.160156 L 322.0625 37.160156 Z M 297.292969 49.546875 L 284.90625 49.546875 L 284.902344 37.160156 L 297.289062 37.160156 Z M 297.292969 185.804688 L 297.292969 198.191406 L 284.90625 198.191406 L 284.90625 185.804688 Z M 309.679688 185.804688 L 322.066406 185.804688 L 322.066406 198.191406 L 309.679688 198.191406 Z M 334.453125 185.804688 L 346.839844 185.804688 L 346.839844 198.191406 L 334.453125 198.191406 Z M 252.289062 185.804688 L 272.515625 185.804688 L 272.515625 198.191406 L 250.789062 198.191406 Z M 359.226562 198.195312 L 359.226562 185.808594 L 371.613281 185.808594 L 371.613281 198.195312 Z M 371.613281 49.550781 L 359.226562 49.550781 L 359.226562 37.160156 L 371.613281 37.160156 Z M 272.515625 37.160156 L 272.515625 49.546875 L 268.804688 49.546875 L 270.304688 37.160156 Z M 253.019531 12.386719 L 254.648438 12.386719 C 257.667969 12.386719 260.128906 14.84375 260.128906 17.875 C 260.128906 18.101562 260.109375 18.332031 260.085938 18.535156 L 238.027344 200.550781 C 234.074219 196.804688 229.203125 194.167969 223.902344 192.902344 Z M 235.355469 44.097656 L 235.355469 37.160156 L 236.476562 37.160156 Z M 167.269531 18.566406 C 167.070312 17.003906 167.554688 15.429688 168.597656 14.246094 C 169.636719 13.066406 171.136719 12.386719 172.714844 12.386719 L 174.339844 12.386719 L 176.34375 24.773438 L 168.023438 24.773438 Z M 24.773438 37.160156 L 24.773438 49.546875 L 12.386719 49.546875 L 12.386719 37.160156 Z M 12.386719 185.804688 L 24.773438 185.804688 L 24.773438 198.191406 L 12.386719 198.195312 Z M 186.191406 341.097656 C 182.972656 358.78125 167.597656 371.613281 149.625 371.613281 L 148.644531 371.613281 C 128.148438 371.613281 111.484375 354.945312 111.484375 334.453125 C 111.484375 313.957031 128.152344 297.292969 148.644531 297.292969 C 165.992188 297.292969 180.832031 284.90625 183.941406 267.832031 L 189.492188 237.308594 C 192.625 243.246094 197.566406 248.042969 203.65625 250.917969 Z M 278.710938 297.289062 C 299.207031 297.289062 315.871094 313.957031 315.871094 334.449219 C 315.871094 354.945312 299.203125 371.609375 278.710938 371.609375 L 277.730469 371.609375 C 259.765625 371.609375 244.386719 358.777344 241.160156 341.027344 L 224.097656 252.96875 L 224.097656 252.972656 C 229.835938 251.574219 235.054688 248.558594 239.132812 244.285156 L 243.410156 267.835938 C 246.523438 284.902344 261.363281 297.289062 278.710938 297.289062 Z M 278.710938 297.289062 " />
</g><g id="Film_Editing_free_icon_4xFaMJB-2"><path style=" stroke:none;fill-rule:nonzero;fill:rgb(0%,0%,0%);fill-opacity:1;" d="M 161.03125 81.328125 L 161.03125 154.023438 L 215.554688 117.675781 Z M 173.417969 104.480469 L 193.21875 117.675781 L 173.417969 130.875 Z M 173.417969 104.480469 " />
</g></g>
</svg>